<svg id="Capa_1" enable-background="new 0 0 512 512" height="512" viewBox="0 0 512 512" width="512" xmlns="http://www.w3.org/2000/svg"><g><g><path d="m207.745 115.383h96.511v191.481h-96.511z" fill="#fff59b"/></g><g fill="#020288"><path d="m256 115.999c22.391 0 41.307-19.401 41.307-42.366 0-20.365-28.5-50.08-34.213-55.83-1.877-1.889-4.431-2.951-7.094-2.951s-5.216 1.063-7.094 2.951c-5.713 5.75-34.213 35.465-34.213 55.83 0 22.965 18.916 42.366 41.307 42.366zm-.016-76.493c10.459 11.907 21.323 27.163 21.323 34.127 0 12.124-9.757 22.366-21.307 22.366s-21.307-10.242-21.307-22.366c0-6.695 10.08-21.441 21.291-34.127z"/><path d="m502 424.554h-99.461v-84.989c20.124-4.563 35.193-22.594 35.193-44.079v-88.231c0-5.522-4.477-10-10-10h-70.388c-5.522 0-10 4.478-10 10v88.231c0 21.485 15.07 39.515 35.194 44.079v84.989h-82.628l-13.166-38.44c20.054-1.013 36.058-17.646 36.058-37.947v-41.303c0-5.522-4.478-10-10-10h-113.604c-5.523 0-10 4.478-10 10v41.303c0 20.301 16.003 36.934 36.057 37.947l-13.166 38.44h-82.627v-84.989c20.124-4.563 35.194-22.594 35.194-44.079v-88.231c0-5.522-4.477-10-10-10h-70.388c-5.523 0-10 4.478-10 10v88.231c0 21.485 15.07 39.515 35.194 44.079v84.989h-99.462c-5.523 0-10 4.478-10 10v24.765c0 20.859 16.97 37.83 37.83 37.83h436.34c20.859 0 37.83-16.971 37.83-37.83v-24.765c0-5.523-4.478-10-10-10zm-84.268-207.299v25.873h-50.388v-25.873zm-50.387 78.231v-32.358h50.388v32.358c0 13.893-11.302 25.194-25.193 25.194-13.893.001-25.195-11.301-25.195-25.194zm-222.69-78.231v25.873h-50.387v-25.873zm-50.387 78.231v-32.358h50.388v32.358c0 13.893-11.302 25.194-25.194 25.194s-25.194-11.301-25.194-25.194zm114.93 52.681v-31.303h93.604v31.303c0 9.923-8.073 17.996-17.996 17.996h-57.611c-9.924 0-17.997-8.073-17.997-17.996zm37.181 37.996h19.241l13.15 38.391h-45.541zm245.621 73.155c0 9.832-7.999 17.83-17.83 17.83h-436.34c-9.831 0-17.83-7.998-17.83-17.83v-14.765h472z"/></g></g></svg>